#!OML:ASF E:/inclinewalkrobotboard/Project1/Captureday1/Session1/subject1.ASF
:FULLY-SPECIFIED
:DEGREES
326
root 0 0 0 1.7624877553144274 -10.800646351798292 0.8354912367270849
lowerback 0.07832183626252753 -1.6255887846002597 -2.4780880867458057
upperback -0.5986706070677036 -2.136873828850257 2.0599554312897723
thorax -0.4645232120740993 -1.0529075555677991 3.4636002248495283
lowerneck -25.465830781840197 -1.5455324329528977 -7.41056516215291
upperneck 26.87153032639209 0.563491809484987 1.722742793416292
head 13.341500159600198 -0.4953201743518876 2.1417365116119917
rclavicle 8.188114992943376E-16 -2.717388071595748E-15
rhumerus -34.020067580821866 -3.471850791392983 -77.96963572712751
rradius 28.373597360647434
rwrist 20.467469705705664
rhand -17.56391859764951 9.018749598572148
rfingers 7.1250199999999335
rthumb 8.686374611258454 -20.759346609060294
lclavicle 7.601634079081995E-16 -8.599578895360514E-16
lhumerus -21.326089358720502 -7.006092651065909 91.17997360620207
lradius 66.00581827807302
lwrist 2.838078825412912
lhand -28.411441000827416 21.806317300123826
lfingers 7.125020000000021
lthumb -1.805933978386915 51.851801450798355
rfemur -18.789167785101668 7.14578178953569 34.314117912612176
rtibia 22.514193121868427
rfoot -5.6848899096473104 -6.662722688570987
rtoes 12.636832757156522
lfemur -3.980333784699798 -0.7194295994014706 -16.786095280493797
ltibia 50.65606266167022
lfoot 11.291870445899708 -14.05527308930499
ltoes -8.01858459882289
327
root 0 0 0 1.7091029719753326 -10.797416363554339 0.772162364728196
lowerback 0.09959297808176903 -1.5917863604103566 -2.4453402372967497
upperback -0.6296478636094887 -2.091056873293411 2.0075848330889787
thorax -0.5121948270668946 -1.0283711103438862 3.3922311589352256
lowerneck -24.92391604485771 -1.4995237246970268 -7.3935343346763895
upperneck 27.931922296378154 0.6181429638120599 1.5560646213972522
head 13.631891485946692 -0.5214829705533486 2.104784231644613
rclavicle -9.162682766059196E-16 -1.8490902322427396E-15
rhumerus -33.88285534581609 -4.174564419830704 -78.41697379343672
rradius 28.66091772517239
rwrist 20.49086696167994
rhand -17.421938385173245 8.93228826433649
rfingers 7.1250199999999335
rthumb 8.823114613030336 -20.846064938090986
lclavicle -5.054821666610903E-16 -1.0973239621491968E-15
lhumerus -21.816417077879237 -5.869243810191522 91.59556772853512
lradius 65.41709962555376
lwrist 2.2500813917995877
lhand -28.630289046856408 21.234000195031008
lfingers 7.125020000000026
lthumb -2.0064018152703857 51.25311413020487
rfemur -12.245494576590954 7.203931454180206 36.71307033279144
rtibia 27.043593321708325
rfoot -10.77770402549065 -6.141558522056137
rtoes 14.791474726059192
lfemur -8.644031407839929 0.384394296747661 -15.325712560012455
ltibia 53.335906383993645
lfoot 8.241593448968537 -11.76936778876713
ltoes -9.119696954536089
328
root 0 0 0 1.6969926657482586 -10.787712655719737 0.7495988154844807
lowerback 0.09388006726394549 -1.575477726546291 -2.4492705604660405
upperback -0.6430124680137705 -2.068430554325176 1.9787753128249814
thorax -0.5247499482043003 -1.0162662460852345 3.3657387397120444
lowerneck -24.65657491761135 -1.487720577200954 -7.418049224940337
upperneck 28.365947635076523 0.6200332270468658 1.533351025802259
head 13.737629731882029 -0.5350729679564794 2.1065557396496235
rclavicle -3.1166869586440833E-15 -5.052295946842225E-16
rhumerus -33.65245630713419 -4.701308787192474 -79.02480398757103
rradius 29.09995060227358
rwrist 20.481095774527738
rhand -17.329928378209264 8.801502287615776
rfingers 7.12501999999994
rthumb 8.91262210458953 -20.98671877975901
lclavicle -1.7549954218569103E-15 -5.782465854269015E-16
lhumerus -22.024038421714902 -5.7102223061839705 91.89271698990068
lradius 65.18592051544432
lwrist 1.9678109356624502
lhand -28.83133686468362 20.938157539204063
lfingers 7.125020000000026
lthumb -2.19827486223779 50.94153584390555
rfemur -6.3628744303300255 7.691893640743057 38.03014583646299
rtibia 26.951599142553764
rfoot -16.06954049735566 -6.545240847822173
rtoes 14.197255674234334
lfemur -17.00165219800718 1.9474864865370587 -14.029868173755657
ltibia 55.979469212748384
lfoot 2.397499813491965 -7.580346255267712
ltoes -8.38540764243699
329
root 0 0 0 1.7010610768948493 -10.768564382109869 0.7434575057444764
lowerback 0.07450507417592345 -1.5615193087154977 -2.4719006288555447
upperback -0.6543705593875279 -2.048357190179815 1.954159155208795
thorax -0.5275173513360514 -1.005461372111577 3.353560696238854
lowerneck -24.48914562445261 -1.4998348691200882 -7.463905970453416
upperneck 28.54435366410474 0.5806679423911763 1.5866579001544994
head 13.764102141860839 -0.5504910887893183 2.1280375467777968
rclavicle -3.7170998390187545E-15 4.366586056204488E-16
rhumerus -33.19945401145106 -4.863282512465697 -79.85091605537158
rradius 29.717319757303354
rwrist 20.279457947048492
rhand -17.336016399414003 8.733172251344602
rfingers 7.125019999999942
rthumb 8.907840635527194 -21.073004280906108
lclavicle -1.2700469176574357E-15 1.5880194622562162E-16
lhumerus -21.96918986343228 -5.551563187604372 92.02767272846542
lradius 65.0623657587
lwrist 1.779669479709478
lhand -28.99659882897159 20.86579632253775
lfingers 7.125020000000025
lthumb -2.3592184850709907 50.85790669536389
rfemur -0.8590783685722325 8.282762833676575 38.66437724680266
rtibia 24.93246258560104
rfoot -20.674094393399987 -7.6928220730494825
rtoes 11.475134003108503
lfemur -21.73272797451496 2.8872960060045254 -13.703256985882541
ltibia 56.70373698087424
lfoot -1.706096806636677 -4.871396640065595
ltoes -7.127323480034359
